<svg xmlns="http://www.w3.org/2000/svg" xmlns:xlink="http://www.w3.org/1999/xlink" xmlns:lucid="lucid" width="742.67" height="641.33"><g transform="translate(-380 80)" lucid:page-tab-id="84RDyfSqYOwS"><path d="M400 200h160v120H400z" stroke="#000" stroke-width="2" fill="#ffeca9"/><use xlink:href="#a" transform="matrix(1,0,0,1,405,205) translate(5.655381944444457 60.329861111111114)"/><path d="M660 200h160v120H660z" stroke="#000" stroke-width="2" fill="#ffeca9"/><use xlink:href="#a" transform="matrix(1,0,0,1,665,205) translate(5.655381944444457 60.329861111111114)"/><path d="M942.67 194.67h160v120h-160z" stroke="#000" stroke-width="2" fill="#ffeca9"/><use xlink:href="#a" transform="matrix(1,0,0,1,947.6666666666279,199.66666666662786) translate(5.655381944444457 60.329861111111114)"/><path d="M561 223.7h79.76" stroke="#000" stroke-width="2" fill="none"/><path d="M561 224.7h-1v-2h1zM655.76 223.7l-14.26 4.64v-9.27z"/><path d="M659 223.7l-18.5 6.02V217.7zm-16.5 3.26l10.03-3.26-10.03-3.26z"/><path d="M659 286.37h-79.76" stroke="#000" stroke-width="2" fill="none"/><path d="M660 287.37h-1v-2h1zM578.5 291l-14.26-4.63 14.26-4.63z"/><path d="M579.5 292.38l-18.5-6 18.5-6.02zm-12.03-6l10.03 3.25v-6.52z"/><path d="M821 222.37h102.43" stroke="#000" stroke-width="2" fill="none"/><path d="M821 223.37h-1v-2h1zM938.43 222.37L924.16 227v-9.26z"/><path d="M941.67 222.37l-18.5 6v-12zm-16.5 3.26l10.02-3.26-10.04-3.26z"/><path d="M941.67 275.7H839.24" stroke="#000" stroke-width="2" fill="none"/><path d="M942.67 276.7h-1v-2h1zM838.5 280.34l-14.26-4.64 14.26-4.63z"/><path d="M839.5 281.72L821 275.7l18.5-6zm-12.03-6.02l10.03 3.26v-6.52z"/><path d="M480 321v79.76" stroke="#000" stroke-width="2" fill="none"/><path d="M481 321h-2v-1h2zM480 415.76l-4.64-14.26h9.28z"/><path d="M480 419l-6-18.5h12zm-3.26-16.5l3.26 10.03 3.26-10.03z"/><path d="M400 420h160v120H400z" stroke="#000" stroke-width="2" fill="#ef8d22"/><use xlink:href="#b" transform="matrix(1,0,0,1,405,425) translate(37.66059027777777 60.329861111111114)"/><path d="M660 420h160v120H660z" stroke="#000" stroke-width="2" fill="#ef8d22"/><use xlink:href="#b" transform="matrix(1,0,0,1,665,425) translate(37.66059027777777 60.329861111111114)"/><path d="M942.67 421.33h160v120h-160z" stroke="#000" stroke-width="2" fill="#ef8d22"/><use xlink:href="#b" transform="matrix(1,0,0,1,947.6666666666279,426.33333333337214) translate(37.66059027777777 60.329861111111114)"/><path d="M1022.67 315.67v86.43" stroke="#000" stroke-width="2" fill="none"/><path d="M1023.67 315.67h-2v-1h2zM1022.67 417.1l-4.64-14.27h9.27z"/><path d="M1022.67 420.33l-6.02-18.5h12.03zm-3.26-16.5l3.27 10.03 3.26-10.03z"/><path d="M740 321v79.76" stroke="#000" stroke-width="2" fill="none"/><path d="M741 321h-2v-1h2zM740 415.76l-4.64-14.26h9.28z"/><path d="M740 419l-6-18.5h12zm-3.26-16.5l3.26 10.03 3.26-10.03z"/><path d="M400-60h160V60H400z" stroke="#000" stroke-width="2" fill="#e5e5e5"/><use xlink:href="#c" transform="matrix(1,0,0,1,405,-55) translate(53.66319444444444 60.329861111111114)"/><path d="M640-60h160V60H640z" stroke="#000" stroke-width="2" fill="#fff"/><use xlink:href="#d" transform="matrix(1,0,0,1,645,-55) translate(26.9921875 60.329861111111114)"/><path d="M610.62 131H481v49.76h-2V129h131.62zM721 131h-67.7v-2H719V61h2zM721 61h-2v-1h2zM480 195.76l-4.64-14.26h9.28z"/><path d="M480 199l-6-18.5h12zm-3.26-16.5l3.26 10.03 3.26-10.03z"/><use xlink:href="#e" transform="matrix(1,0,0,1,610.6158799364592,121.11111111111111) translate(0 14.21875)"/><path d="M1023.67 175.43h-2V1h-68.75v-2h70.75zM801 1v-2h109.24v2zM801 1h-1v-2h1zM1022.67 190.43l-4.64-14.27h9.27z"/><path d="M1022.67 193.67l-6.02-18.5h12.03zm-3.26-16.5l3.27 10.02 3.26-10.04z"/><use xlink:href="#f" transform="matrix(1,0,0,1,910.2433708785685,-8.88888888888889) translate(0 14.21875)"/><path d="M561 0h59.76" stroke="#000" stroke-width="2" fill="none"/><path d="M561 1h-1v-2h1zM635.76 0L621.5 4.64v-9.28z"/><path d="M639 0l-18.5 6V-6zm-16.5 3.26L632.53 0 622.5-3.26z"/><defs><path d="M530 26c-303-6-392-228-392-558 0-187 33-329 98-424s162-142 293-142c178 0 273 69 334 184 1-56 3-122 12-169h175c-6 88-6 180-6 282V425H863c1-202-4-411 4-607h-2C805-59 713 29 530 26zm47-139c234 0 286-193 286-441 0-238-55-411-284-411-223 0-255 198-255 427 0 227 33 425 253 425" id="g"/><path d="M528 20c-247 0-343-132-343-381v-721h180v686c-4 177 45 284 224 277 194-8 279-136 279-336v-627h181c3 360-6 732 6 1082H885c-4-54-7-126-8-185h-3C809-64 714 20 528 20" id="h"/><path d="M745-142h380V0H143v-142h422v-798H246v-142h499v940zM545-1292v-192h200v192H545" id="i"/><path d="M631 20c-350 0-501-215-501-562 0-355 162-560 502-560 250 0 399 118 446 323l-192 14c-23-124-109-196-262-196-242 0-305 171-305 415 1 245 61 427 304 427 151 0 248-77 267-215l190 12C1039-107 883 20 631 20" id="j"/><path d="M914 0L548-499l-132 98V0H236v-1484h180v927l475-525h211L663-617 1125 0H914" id="k"/><path d="M736-142h380V0H134v-142h422v-1200H267v-142h469v1342" id="l"/><path d="M873-819c-18-114-119-146-250-146-163 0-245 50-245 151 0 151 170 148 294 185 182 54 388 94 388 320 0 240-189 325-439 329-245 4-410-69-454-268l159-31c24 133 136 168 295 165 144-2 270-31 270-171 0-164-195-160-331-202-167-52-350-87-350-299 0-218 173-315 413-313 220 2 373 77 412 260" id="m"/><path d="M682 16c-209 0-323-80-324-285v-671H190v-142h170l58-282h120v282h432v142H538v652c2 114 60 155 182 155 106 0 209-16 297-34v137C921-4 806 16 682 16" id="n"/><path d="M912-211c-10-84-18-177-18-274v-864h172V0H836L316-1130c7 79 16 167 16 254V0H162v-1349h222" id="o"/><path d="M615-1102c343 0 484 203 482 560-1 347-147 562-488 562-336 0-475-219-479-562-4-349 156-560 485-560zm-8 989c240 0 301-180 301-429 0-245-55-427-290-427-236 0-299 181-299 427 0 243 61 429 288 429" id="p"/><path d="M865-914c-3-187-2-380-2-570h180v1261c0 76 1 155 6 223H877c-8-49-9-116-10-174h-5C801-44 708 26 530 26c-135 0-234-46-297-139s-95-232-95-419c0-377 131-566 392-566 176 0 271 63 335 184zm-286-51c-222 0-255 197-255 427 0 229 31 425 253 425 237 0 286-195 286-441 0-238-52-411-284-411" id="q"/><path d="M617-1102c355 0 481 238 477 599H322c5 222 84 388 301 388 144 0 244-59 284-166l158 45C1002-72 854 20 623 20c-342 0-490-220-490-568 0-346 151-554 484-554zm291 461c-18-192-90-328-289-328-194 0-287 128-295 328h584" id="r"/><g id="a"><use transform="matrix(0.008680555555555556,0,0,0.008680555555555556,0,0)" xlink:href="#g"/><use transform="matrix(0.008680555555555556,0,0,0.008680555555555556,10.668402777777779,0)" xlink:href="#h"/><use transform="matrix(0.008680555555555556,0,0,0.008680555555555556,21.336805555555557,0)" xlink:href="#i"/><use transform="matrix(0.008680555555555556,0,0,0.008680555555555556,32.005208333333336,0)" xlink:href="#j"/><use transform="matrix(0.008680555555555556,0,0,0.008680555555555556,42.673611111111114,0)" xlink:href="#k"/><use transform="matrix(0.008680555555555556,0,0,0.008680555555555556,53.34201388888889,0)" xlink:href="#l"/><use transform="matrix(0.008680555555555556,0,0,0.008680555555555556,64.01041666666667,0)" xlink:href="#i"/><use transform="matrix(0.008680555555555556,0,0,0.008680555555555556,74.67881944444446,0)" xlink:href="#m"/><use transform="matrix(0.008680555555555556,0,0,0.008680555555555556,85.34722222222223,0)" xlink:href="#n"/><use transform="matrix(0.008680555555555556,0,0,0.008680555555555556,96.015625,0)" xlink:href="#o"/><use transform="matrix(0.008680555555555556,0,0,0.008680555555555556,106.68402777777777,0)" xlink:href="#p"/><use transform="matrix(0.008680555555555556,0,0,0.008680555555555556,117.35243055555554,0)" xlink:href="#q"/><use transform="matrix(0.008680555555555556,0,0,0.008680555555555556,128.02083333333331,0)" xlink:href="#r"/></g><path d="M147 0v-137l681-806H187v-139h844v137L349-139h719V0H147" id="s"/><path d="M698-1104c312 3 392 244 392 558 0 315-82 566-392 566-169 0-277-65-331-184h-5c8 188 2 394 4 589H185V-858c0-76-1-156-6-224h175c6 52 9 120 10 178h4c58-122 150-202 330-200zm-49 991c225 0 255-203 255-433 0-225-32-419-253-419-236 0-285 192-285 441 0 237 53 411 283 411" id="t"/><g id="b"><use transform="matrix(0.008680555555555556,0,0,0.008680555555555556,0,0)" xlink:href="#s"/><use transform="matrix(0.008680555555555556,0,0,0.008680555555555556,10.668402777777779,0)" xlink:href="#i"/><use transform="matrix(0.008680555555555556,0,0,0.008680555555555556,21.336805555555557,0)" xlink:href="#t"/><use transform="matrix(0.008680555555555556,0,0,0.008680555555555556,32.005208333333336,0)" xlink:href="#l"/><use transform="matrix(0.008680555555555556,0,0,0.008680555555555556,42.673611111111114,0)" xlink:href="#i"/><use transform="matrix(0.008680555555555556,0,0,0.008680555555555556,53.34201388888889,0)" xlink:href="#m"/><use transform="matrix(0.008680555555555556,0,0,0.008680555555555556,64.01041666666667,0)" xlink:href="#n"/></g><path d="M839-1102c70 0 148 7 206 17v167c-112-18-268-36-363 15-129 69-208 203-208 395V0H294c-10-367 32-789-52-1082h171c21 75 41 161 48 250h5c67-152 152-270 373-270" id="u"/><path d="M365-904c58-129 161-200 334-200 130 0 228 46 293 138s98 233 98 420c0 189-34 331-102 425S824 20 698 20c-170 0-275-64-336-184 0 55-3 116-9 164H179c5-68 6-147 6-223v-1261h180c-2 193 4 394-4 580h4zm283 791c221 0 256-197 256-427 0-229-34-425-254-425-236 0-285 195-285 441 0 237 53 411 283 411" id="v"/><path d="M390 276c167 0 266-82 266-251v-965H249v-142h587V28c-4 270-165 397-431 397-107 0-208-16-288-43V242c80 18 173 34 273 34zm246-1568v-192h200v192H636" id="w"/><g id="c"><use transform="matrix(0.008680555555555556,0,0,0.008680555555555556,0,0)" xlink:href="#u"/><use transform="matrix(0.008680555555555556,0,0,0.008680555555555556,10.668402777777779,0)" xlink:href="#p"/><use transform="matrix(0.008680555555555556,0,0,0.008680555555555556,21.336805555555557,0)" xlink:href="#v"/><use transform="matrix(0.008680555555555556,0,0,0.008680555555555556,32.005208333333336,0)" xlink:href="#w"/></g><g id="d"><use transform="matrix(0.008680555555555556,0,0,0.008680555555555556,0,0)" xlink:href="#g"/><use transform="matrix(0.008680555555555556,0,0,0.008680555555555556,10.668402777777779,0)" xlink:href="#h"/><use transform="matrix(0.008680555555555556,0,0,0.008680555555555556,21.336805555555557,0)" xlink:href="#i"/><use transform="matrix(0.008680555555555556,0,0,0.008680555555555556,32.005208333333336,0)" xlink:href="#j"/><use transform="matrix(0.008680555555555556,0,0,0.008680555555555556,42.673611111111114,0)" xlink:href="#k"/><use transform="matrix(0.008680555555555556,0,0,0.008680555555555556,53.34201388888889,0)" xlink:href="#l"/><use transform="matrix(0.008680555555555556,0,0,0.008680555555555556,64.01041666666667,0)" xlink:href="#i"/><use transform="matrix(0.008680555555555556,0,0,0.008680555555555556,74.67881944444446,0)" xlink:href="#m"/><use transform="matrix(0.008680555555555556,0,0,0.008680555555555556,85.34722222222223,0)" xlink:href="#n"/></g><path d="M648-963c-190 6-283 138-283 336V0H185v-1484h181c-2 197 6 404-9 587h3c62-120 159-205 339-205 242 0 351 135 350 381V0H868v-695c1-168-57-273-220-268" id="x"/><path d="M1000-272c3 95 12 159 101 161 21 0 41-3 59-7V-6c-44 10-86 16-139 16-141 2-191-84-197-217h-6C748-76 648 20 446 20c-207 0-318-120-318-322 0-266 194-348 454-354l236-4c12-191-40-305-222-305-140 0-220 47-232 172l-188-17c33-204 181-292 423-292 255 0 401 118 401 364v466zm-683-27c0 109 63 184 175 182 166-3 259-96 306-217 24-65 20-120 20-200-232 7-501-28-501 235" id="y"/><g id="e"><use transform="matrix(0.008680555555555556,0,0,0.008680555555555556,0,0)" xlink:href="#x"/><use transform="matrix(0.008680555555555556,0,0,0.008680555555555556,10.668402777777779,0)" xlink:href="#r"/><use transform="matrix(0.008680555555555556,0,0,0.008680555555555556,21.336805555555557,0)" xlink:href="#y"/><use transform="matrix(0.008680555555555556,0,0,0.008680555555555556,32.005208333333336,0)" xlink:href="#q"/></g><g id="f"><use transform="matrix(0.008680555555555556,0,0,0.008680555555555556,0,0)" xlink:href="#n"/><use transform="matrix(0.008680555555555556,0,0,0.008680555555555556,10.668402777777779,0)" xlink:href="#y"/><use transform="matrix(0.008680555555555556,0,0,0.008680555555555556,21.336805555555557,0)" xlink:href="#i"/><use transform="matrix(0.008680555555555556,0,0,0.008680555555555556,32.005208333333336,0)" xlink:href="#l"/></g></defs></g></svg>